<svg id="visual" viewBox="0 0 1427 893" width="1427" height="893" xmlns="http://www.w3.org/2000/svg" xmlns:xlink="http://www.w3.org/1999/xlink" version="1.1"><path d="M0 90L21.7 94.5C43.3 99 86.7 108 129.8 120C173 132 216 147 259.2 144C302.3 141 345.7 120 389 118.5C432.3 117 475.7 135 519 135C562.3 135 605.7 117 648.8 130.3C692 143.7 735 188.3 778.2 206.2C821.3 224 864.7 215 908 192.7C951.3 170.3 994.7 134.7 1038 125.8C1081.3 117 1124.7 135 1167.8 148.5C1211 162 1254 171 1297.2 182.8C1340.3 194.7 1383.7 209.3 1405.3 216.7L1427 224L1427 0L1405.3 0C1383.7 0 1340.3 0 1297.2 0C1254 0 1211 0 1167.8 0C1124.7 0 1081.3 0 1038 0C994.7 0 951.3 0 908 0C864.7 0 821.3 0 778.2 0C735 0 692 0 648.8 0C605.7 0 562.3 0 519 0C475.7 0 432.3 0 389 0C345.7 0 302.3 0 259.2 0C216 0 173 0 129.8 0C86.7 0 43.3 0 21.7 0L0 0Z" fill="#6198ff"></path><path d="M0 171L21.7 171C43.3 171 86.7 171 129.8 181.3C173 191.7 216 212.3 259.2 210.8C302.3 209.3 345.7 185.7 389 188.7C432.3 191.7 475.7 221.3 519 230.2C562.3 239 605.7 227 648.8 233C692 239 735 263 778.2 283.8C821.3 304.7 864.7 322.3 908 308.8C951.3 295.3 994.7 250.7 1038 243.3C1081.3 236 1124.7 266 1167.8 273.5C1211 281 1254 266 1297.2 263C1340.3 260 1383.7 269 1405.3 273.5L1427 278L1427 222L1405.3 214.7C1383.7 207.3 1340.3 192.7 1297.2 180.8C1254 169 1211 160 1167.8 146.5C1124.7 133 1081.3 115 1038 123.8C994.7 132.7 951.3 168.3 908 190.7C864.7 213 821.3 222 778.2 204.2C735 186.3 692 141.7 648.8 128.3C605.7 115 562.3 133 519 133C475.7 133 432.3 115 389 116.5C345.7 118 302.3 139 259.2 142C216 145 173 130 129.8 118C86.7 106 43.3 97 21.7 92.5L0 88Z" fill="#3c80ff"></path><path d="M0 340L21.7 360.8C43.3 381.7 86.7 423.3 129.8 457.7C173 492 216 519 259.2 519C302.3 519 345.7 492 389 466.7C432.3 441.3 475.7 417.7 519 404.3C562.3 391 605.7 388 648.8 432.7C692 477.3 735 569.7 778.2 617.3C821.3 665 864.7 668 908 636.7C951.3 605.3 994.7 539.7 1038 501C1081.3 462.3 1124.7 450.7 1167.8 441.8C1211 433 1254 427 1297.2 465.7C1340.3 504.3 1383.7 587.7 1405.3 629.3L1427 671L1427 276L1405.3 271.5C1383.7 267 1340.3 258 1297.2 261C1254 264 1211 279 1167.8 271.5C1124.7 264 1081.3 234 1038 241.3C994.7 248.7 951.3 293.3 908 306.8C864.7 320.3 821.3 302.7 778.2 281.8C735 261 692 237 648.8 231C605.7 225 562.3 237 519 228.2C475.7 219.3 432.3 189.7 389 186.7C345.7 183.7 302.3 207.3 259.2 208.8C216 210.3 173 189.7 129.8 179.3C86.7 169 43.3 169 21.7 169L0 169Z" fill="#0066ff"></path><path d="M0 519L21.7 530.8C43.3 542.7 86.7 566.3 129.8 581.2C173 596 216 602 259.2 612.5C302.3 623 345.7 638 389 632.2C432.3 626.3 475.7 599.7 519 581.8C562.3 564 605.7 555 648.8 583.2C692 611.3 735 676.7 778.2 713.8C821.3 751 864.7 760 908 743.7C951.3 727.3 994.7 685.7 1038 655.8C1081.3 626 1124.7 608 1167.8 584.2C1211 560.3 1254 530.7 1297.2 559C1340.3 587.3 1383.7 673.7 1405.3 716.8L1427 760L1427 669L1405.3 627.3C1383.7 585.7 1340.3 502.3 1297.2 463.7C1254 425 1211 431 1167.8 439.8C1124.7 448.7 1081.3 460.3 1038 499C994.7 537.7 951.3 603.3 908 634.7C864.7 666 821.3 663 778.2 615.3C735 567.7 692 475.3 648.8 430.7C605.7 386 562.3 389 519 402.3C475.7 415.7 432.3 439.3 389 464.7C345.7 490 302.3 517 259.2 517C216 517 173 490 129.8 455.7C86.7 421.3 43.3 379.7 21.7 358.8L0 338Z" fill="#0059dd"></path><path d="M0 894L21.7 894C43.3 894 86.7 894 129.8 894C173 894 216 894 259.2 894C302.3 894 345.7 894 389 894C432.3 894 475.7 894 519 894C562.3 894 605.7 894 648.8 894C692 894 735 894 778.2 894C821.3 894 864.7 894 908 894C951.3 894 994.7 894 1038 894C1081.3 894 1124.7 894 1167.8 894C1211 894 1254 894 1297.2 894C1340.3 894 1383.7 894 1405.3 894L1427 894L1427 758L1405.3 714.8C1383.7 671.7 1340.3 585.3 1297.2 557C1254 528.7 1211 558.3 1167.8 582.2C1124.7 606 1081.3 624 1038 653.8C994.7 683.7 951.3 725.3 908 741.7C864.7 758 821.3 749 778.2 711.8C735 674.7 692 609.3 648.8 581.2C605.7 553 562.3 562 519 579.8C475.7 597.7 432.3 624.3 389 630.2C345.7 636 302.3 621 259.2 610.5C216 600 173 594 129.8 579.2C86.7 564.3 43.3 540.7 21.7 528.8L0 517Z" fill="#004cbb"></path></svg>